<svg
          xmlns="http://www.w3.org/2000/svg"
          width="204"
          height="51"
          viewBox="0 0 204 51"
          fill="none"
        >
          <path
            d="M29.6428 31.54C29.3659 26.4311 25.8144 21.9134 20.9926 21.0267C25.3221 19.7178 28.1791 14.8253 27.7439 9.75334C27.3484 5.15639 24.3287 1.31417 20.3596 0.506671C15.8939 0.337782 11.4281 0.168889 6.96236 0C4.64157 1.9 2.32079 3.8 0 5.70001C0.0703268 20.1822 0.140659 34.6645 0.210985 49.1467H14.5577C18.2498 46.5289 21.942 43.9111 25.6341 41.2934C25.9462 41.0136 29.9548 37.3034 29.6428 31.54ZM21.0981 43.4467C16.773 43.4045 12.4479 43.3623 8.12276 43.32C8.14034 40.8236 8.14912 38.1953 8.15791 35.4297C8.16671 32.6642 8.1711 29.7667 8.1711 26.7214C8.1711 23.6761 8.1755 20.3353 8.18429 17.1264C8.19308 13.5217 8.21066 9.92224 8.22824 6.33335C9.48533 6.04835 12.2808 5.62612 15.3488 7.15668C16.6455 7.80057 18.7465 8.85085 19.964 11.4634C21.898 15.6117 20.0124 20.3089 19.7794 20.8683C18.1355 20.9528 16.496 21.0425 14.8522 21.127C12.8039 22.7261 10.7512 24.3306 8.70295 25.9297V26.9009C10.76 27.0539 12.8171 27.207 14.8741 27.36C17.9333 27.6134 20.6497 29.8511 21.942 33.1867C23.2386 36.5328 22.9134 40.47 21.0981 43.4467Z"
            fill="#F26A5A"
          />
          <path
            d="M45.518 28.3099H54.5375C54.2561 26.7793 53.4562 23.5335 51.0035 21.1532C48.3355 18.5618 43.8522 17.1316 41.5358 19.4327C40.8633 20.1029 40.5688 21.0213 39.9798 22.8632C39.1842 25.3596 38.1952 28.4577 38.793 32.2366C39.404 36.1105 41.3424 38.5646 42.2478 39.6783C45.6411 43.8583 49.8212 44.5391 51.0299 44.7133C54.3353 45.1935 57.0077 44.2488 58.467 43.5733C57.5615 44.9191 55.9044 47.0302 53.3243 48.6082C52.1683 49.3155 48.208 51.6483 43.1972 50.3183C41.9929 49.9963 37.0348 48.5766 34.0987 42.7183C33.7998 42.1271 31.145 36.6277 32.6482 30.0199C33.3207 27.0696 34.5646 25.0377 35.2327 24.0666C37.4612 20.8418 40.1468 19.5435 41.3512 19.0632C41.8566 18.2188 42.6698 17.0418 43.8829 15.9599C44.8016 15.1418 47.3333 13.1416 50.898 13.1732C52.287 13.1838 55.7638 13.5216 58.5461 16.7832C62.5195 21.4488 61.6449 28.0724 61.5526 28.6899C59.3021 30.516 57.0516 32.3421 54.8012 34.1682H39.7952C39.804 33.7619 39.8084 33.3608 39.8172 32.9544C41.716 31.408 43.6148 29.8563 45.518 28.3099Z"
            fill="#F26A5A"
          />
          <path
            d="M87.0297 49.3686L79.2762 49.6536C79.263 47.9752 79.2498 46.2969 79.2366 44.6186C75.773 50.2605 70.0678 52.0444 66.1426 49.5586C64.0944 48.2602 61.6505 45.4841 61.6329 41.7686C61.611 37.5041 64.5295 33.9416 69.1623 33.0127C69.0129 33.3347 67.3646 36.8338 68.9909 40.4861C70.6084 44.1119 75.0478 45.843 79.1575 43.5736V32.5061C76.1115 32.5061 73.2193 32.4216 70.1732 32.4216C72.0193 30.585 73.7116 28.8327 75.5576 26.9961H79.1223C79.0388 26.3997 78.2652 21.3541 74.3313 18.8736C71.2194 16.9102 67.3514 17.3219 64.402 19.9186C65.0174 18.7627 66.925 15.4958 70.5732 13.9336C73.5445 12.6616 76.0763 13.1788 77.5751 13.5536C79.3245 13.9916 83.487 14.9205 85.6583 19.1902C86.4847 20.8158 86.766 22.4044 86.8715 23.4336C86.9242 32.0786 86.977 40.7236 87.0297 49.3686Z"
            fill="#F26A5A"
          />
          <path
            d="M100.164 14.4082H92.5684V49.5582H100.164V14.4082Z"
            fill="#F26A5A"
          />
          <path
            d="M118.993 49.2732L111.319 49.3682L111.24 25.9032C111.24 25.634 111.187 21.169 107.996 18.7782C105.79 17.1262 102.963 17.121 100.704 18.7623C101.122 18.0287 103.812 13.4529 108.629 12.8882C109.526 12.7826 112.805 12.3973 115.591 15.1682C117.648 17.2107 118.308 19.8496 118.519 20.8682C118.677 30.3365 118.835 39.8049 118.993 49.2732Z"
            fill="#F26A5A"
          />
          <path
            d="M137.283 49.2732C134.724 49.3049 132.166 49.3365 129.608 49.3682L129.529 25.9032C129.529 25.634 129.476 21.169 126.285 18.7782C124.079 17.1262 121.252 17.121 118.993 18.7623C119.411 18.0287 122.101 13.4529 126.918 12.8882C127.815 12.7826 131.094 12.3973 133.88 15.1682C135.938 17.2107 136.597 19.8496 136.808 20.8682L137.283 49.2732Z"
            fill="#F26A5A"
          />
          <path
            d="M155.132 28.347H164.152C163.87 26.8165 163.07 23.5706 160.618 21.1903C157.95 18.5989 153.466 17.1687 151.15 19.4698C150.473 20.1348 150.183 21.0584 149.594 22.9003C148.798 25.3967 147.81 28.4895 148.407 32.2737C149.018 36.1476 150.957 38.6017 151.862 39.7154C155.255 43.8954 159.435 44.5762 160.644 44.7504C163.95 45.2254 166.622 44.2859 168.081 43.6103C167.176 44.9562 165.519 47.062 162.939 48.6454C161.783 49.3526 157.822 51.6854 152.811 50.3554C151.607 50.0334 146.649 48.6137 143.713 42.7554C143.414 42.1642 140.759 36.6648 142.262 30.057C142.935 27.1067 144.174 25.0748 144.847 24.1037C147.075 20.8789 149.761 19.5806 150.965 19.1003C151.466 18.2559 152.284 17.0789 153.497 15.997C154.416 15.1737 156.948 13.1787 160.512 13.2103C161.901 13.2209 165.378 13.5534 168.16 16.8203C172.134 21.4859 171.259 28.1095 171.167 28.727C168.916 30.5531 166.666 32.3792 164.415 34.2054H149.409C149.414 33.799 149.423 33.3978 149.427 32.9915C151.33 31.4451 153.229 29.8934 155.132 28.347Z"
            fill="#F26A5A"
          />
          <path
            d="M183.113 14.4082H175.518V49.5582H183.113V14.4082Z"
            fill="#F26A5A"
          />
          <path d="M204 14.4082H196.404V49.5582H204V14.4082Z" fill="#F26A5A" />
          <path d="M204 4.97168H196.404V12.0017H204V4.97168Z" fill="#F26A5A" />
          <path
            d="M193.838 14.503C193.812 17.5747 193.785 20.6464 193.759 23.7181C193.289 23.2431 191.319 21.3642 188.418 21.4856C185.926 21.5858 184.243 23.1006 183.711 23.6231C183.86 22.7733 184.594 19.1106 187.548 16.5931C190.243 14.2972 193.051 14.4344 193.838 14.503Z"
            fill="#F26A5A"
          />
        </svg>